<svg width="364" height="107" viewBox="0 0 364 107" fill="none" xmlns="http://www.w3.org/2000/svg">
<path d="M263.961 87.2157V88.3843C263.961 89.7731 263.787 91.018 263.44 92.1188C263.093 93.2197 262.593 94.1555 261.941 94.9261C261.289 95.6967 260.505 96.2852 259.591 96.6917C258.685 97.0982 257.669 97.3014 256.542 97.3014C255.45 97.3014 254.446 97.0982 253.532 96.6917C252.626 96.2852 251.838 95.6967 251.169 94.9261C250.509 94.1555 249.996 93.2197 249.632 92.1188C249.268 91.018 249.086 89.7731 249.086 88.3843V87.2157C249.086 85.8269 249.264 84.5863 249.62 83.4939C249.984 82.393 250.496 81.4573 251.157 80.6867C251.817 79.9076 252.6 79.3148 253.506 78.9083C254.421 78.5019 255.425 78.2986 256.517 78.2986C257.643 78.2986 258.659 78.5019 259.566 78.9083C260.48 79.3148 261.263 79.9076 261.915 80.6867C262.576 81.4573 263.08 82.393 263.427 83.4939C263.783 84.5863 263.961 85.8269 263.961 87.2157ZM261.534 88.3843V87.1903C261.534 86.0894 261.42 85.1156 261.191 84.2688C260.971 83.4219 260.645 82.7106 260.213 82.1348C259.781 81.5589 259.252 81.1228 258.626 80.8264C258.007 80.53 257.304 80.3818 256.517 80.3818C255.755 80.3818 255.065 80.53 254.446 80.8264C253.837 81.1228 253.312 81.5589 252.871 82.1348C252.439 82.7106 252.105 83.4219 251.868 84.2688C251.631 85.1156 251.512 86.0894 251.512 87.1903V88.3843C251.512 89.4937 251.631 90.476 251.868 91.3313C252.105 92.1781 252.444 92.8937 252.884 93.478C253.333 94.0538 253.862 94.4899 254.472 94.7863C255.09 95.0827 255.78 95.2309 256.542 95.2309C257.338 95.2309 258.045 95.0827 258.664 94.7863C259.282 94.4899 259.803 94.0538 260.226 93.478C260.658 92.8937 260.984 92.1781 261.204 91.3313C261.424 90.476 261.534 89.4937 261.534 88.3843ZM269.626 85.9455V102.332H267.263V83.3034H269.423L269.626 85.9455ZM278.886 90.061V90.3278C278.886 91.3271 278.767 92.2543 278.53 93.1096C278.293 93.9564 277.946 94.6932 277.489 95.3198C277.04 95.9465 276.485 96.4334 275.825 96.7806C275.164 97.1278 274.406 97.3014 273.551 97.3014C272.679 97.3014 271.908 97.1575 271.239 96.8695C270.57 96.5816 270.003 96.1624 269.537 95.612C269.071 95.0616 268.699 94.401 268.419 93.6304C268.148 92.8598 267.962 91.9918 267.86 91.0264V89.6038C267.962 88.5876 268.152 87.6772 268.432 86.8727C268.711 86.0683 269.08 85.3823 269.537 84.815C270.003 84.2391 270.566 83.803 271.226 83.5066C271.887 83.2018 272.649 83.0493 273.513 83.0493C274.377 83.0493 275.143 83.2187 275.812 83.5574C276.481 83.8877 277.044 84.3619 277.501 84.9801C277.959 85.5983 278.302 86.3392 278.53 87.203C278.767 88.0583 278.886 89.011 278.886 90.061ZM276.523 90.3278V90.061C276.523 89.3751 276.451 88.7315 276.307 88.1303C276.163 87.5206 275.939 86.9871 275.634 86.5298C275.338 86.064 274.957 85.6999 274.491 85.4374C274.025 85.1664 273.47 85.0309 272.827 85.0309C272.234 85.0309 271.717 85.1325 271.277 85.3358C270.845 85.539 270.477 85.8142 270.172 86.1614C269.867 86.5001 269.617 86.8897 269.423 87.33C269.236 87.7619 269.097 88.2107 269.003 88.6765V91.9664C269.173 92.5592 269.41 93.1181 269.715 93.6431C270.02 94.1597 270.426 94.5789 270.934 94.9007C271.442 95.214 272.082 95.3706 272.852 95.3706C273.487 95.3706 274.034 95.2394 274.491 94.9769C274.957 94.7059 275.338 94.3375 275.634 93.8718C275.939 93.406 276.163 92.8725 276.307 92.2713C276.451 91.6615 276.523 91.0137 276.523 90.3278ZM287.587 97.3014C286.63 97.3014 285.762 97.1405 284.983 96.8187C284.212 96.4885 283.548 96.0269 282.989 95.4342C282.438 94.8414 282.015 94.1385 281.718 93.3256C281.422 92.5126 281.274 91.6234 281.274 90.6581V90.1246C281.274 89.0067 281.439 88.0117 281.769 87.1395C282.1 86.2588 282.548 85.5136 283.116 84.9039C283.683 84.2942 284.327 83.8326 285.047 83.5193C285.766 83.206 286.512 83.0493 287.282 83.0493C288.264 83.0493 289.111 83.2187 289.823 83.5574C290.542 83.8962 291.131 84.3704 291.588 84.9801C292.046 85.5813 292.384 86.2927 292.604 87.1141C292.825 87.927 292.935 88.8162 292.935 89.7816V90.8359H282.671V88.9178H290.585V88.74C290.551 88.1303 290.424 87.5375 290.204 86.9617C289.992 86.3858 289.653 85.9116 289.187 85.539C288.722 85.1664 288.087 84.9801 287.282 84.9801C286.749 84.9801 286.257 85.0944 285.809 85.3231C285.36 85.5432 284.975 85.8735 284.653 86.3138C284.331 86.7542 284.081 87.2919 283.903 87.927C283.725 88.5622 283.637 89.2947 283.637 90.1246V90.6581C283.637 91.3101 283.725 91.9241 283.903 92.4999C284.09 93.0673 284.356 93.5669 284.704 93.9988C285.059 94.4307 285.487 94.7694 285.986 95.015C286.495 95.2606 287.07 95.3833 287.714 95.3833C288.544 95.3833 289.247 95.214 289.823 94.8753C290.398 94.5365 290.902 94.0835 291.334 93.5161L292.757 94.6466C292.46 95.0954 292.084 95.5231 291.626 95.9296C291.169 96.336 290.606 96.6663 289.937 96.9203C289.276 97.1744 288.493 97.3014 287.587 97.3014ZM298.028 86.2376V97.0474H295.678V83.3034H297.901L298.028 86.2376ZM297.469 89.6546L296.491 89.6165C296.5 88.6765 296.64 87.8085 296.911 87.0125C297.182 86.208 297.563 85.5094 298.054 84.9166C298.545 84.3238 299.129 83.8665 299.807 83.5447C300.493 83.2145 301.251 83.0493 302.08 83.0493C302.758 83.0493 303.368 83.1425 303.91 83.3288C304.452 83.5066 304.913 83.7945 305.294 84.1925C305.684 84.5906 305.98 85.1071 306.183 85.7422C306.387 86.3689 306.488 87.1353 306.488 88.0414V97.0474H304.126V88.016C304.126 87.2962 304.02 86.7203 303.808 86.2884C303.596 85.8481 303.287 85.5305 302.881 85.3358C302.474 85.1325 301.975 85.0309 301.382 85.0309C300.797 85.0309 300.264 85.1537 299.781 85.3993C299.307 85.6448 298.896 85.9836 298.549 86.4155C298.21 86.8473 297.944 87.3427 297.749 87.9016C297.563 88.4521 297.469 89.0364 297.469 89.6546ZM315.418 97.0474H311.556L311.582 95.0531H315.418C316.739 95.0531 317.84 94.7779 318.721 94.2274C319.601 93.6685 320.262 92.8894 320.702 91.8902C321.151 90.8825 321.375 89.7054 321.375 88.3589V87.2284C321.375 86.1699 321.248 85.2299 320.994 84.4085C320.74 83.5786 320.368 82.88 319.876 82.3126C319.385 81.7367 318.784 81.3006 318.073 81.0042C317.37 80.7079 316.561 80.5597 315.647 80.5597H311.48V78.5527H315.647C316.858 78.5527 317.963 78.7559 318.962 79.1624C319.961 79.5604 320.821 80.1405 321.54 80.9026C322.269 81.6563 322.828 82.5709 323.217 83.6463C323.607 84.7133 323.802 85.9158 323.802 87.2538V88.3589C323.802 89.6969 323.607 90.9036 323.217 91.9791C322.828 93.0461 322.265 93.9564 321.528 94.7101C320.8 95.4638 319.919 96.0439 318.886 96.4504C317.861 96.8484 316.705 97.0474 315.418 97.0474ZM312.865 78.5527V97.0474H310.413V78.5527H312.865ZM326.507 90.3278V90.0356C326.507 89.0449 326.651 88.1261 326.939 87.2792C327.227 86.4239 327.642 85.683 328.184 85.0563C328.726 84.4212 329.382 83.93 330.153 83.5828C330.923 83.2272 331.787 83.0493 332.744 83.0493C333.709 83.0493 334.577 83.2272 335.348 83.5828C336.127 83.93 336.788 84.4212 337.33 85.0563C337.88 85.683 338.299 86.4239 338.587 87.2792C338.875 88.1261 339.019 89.0449 339.019 90.0356V90.3278C339.019 91.3186 338.875 92.2374 338.587 93.0842C338.299 93.931 337.88 94.672 337.33 95.3071C336.788 95.9338 336.131 96.4249 335.361 96.7806C334.599 97.1278 333.735 97.3014 332.769 97.3014C331.804 97.3014 330.936 97.1278 330.165 96.7806C329.395 96.4249 328.734 95.9338 328.184 95.3071C327.642 94.672 327.227 93.931 326.939 93.0842C326.651 92.2374 326.507 91.3186 326.507 90.3278ZM328.857 90.0356V90.3278C328.857 91.0137 328.938 91.6615 329.098 92.2713C329.259 92.8725 329.501 93.406 329.822 93.8718C330.153 94.3375 330.563 94.7059 331.055 94.9769C331.546 95.2394 332.117 95.3706 332.769 95.3706C333.413 95.3706 333.976 95.2394 334.459 94.9769C334.95 94.7059 335.356 94.3375 335.678 93.8718C336 93.406 336.241 92.8725 336.402 92.2713C336.572 91.6615 336.656 91.0137 336.656 90.3278V90.0356C336.656 89.3582 336.572 88.7188 336.402 88.1176C336.241 87.5079 335.996 86.9701 335.666 86.5044C335.344 86.0302 334.937 85.6576 334.446 85.3866C333.963 85.1156 333.396 84.9801 332.744 84.9801C332.1 84.9801 331.533 85.1156 331.042 85.3866C330.559 85.6576 330.153 86.0302 329.822 86.5044C329.501 86.9701 329.259 87.5079 329.098 88.1176C328.938 88.7188 328.857 89.3582 328.857 90.0356ZM341.344 90.3278V90.0356C341.344 89.0449 341.487 88.1261 341.775 87.2792C342.063 86.4239 342.478 85.683 343.02 85.0563C343.562 84.4212 344.218 83.93 344.989 83.5828C345.76 83.2272 346.623 83.0493 347.58 83.0493C348.546 83.0493 349.414 83.2272 350.184 83.5828C350.963 83.93 351.624 84.4212 352.166 85.0563C352.716 85.683 353.136 86.4239 353.423 87.2792C353.711 88.1261 353.855 89.0449 353.855 90.0356V90.3278C353.855 91.3186 353.711 92.2374 353.423 93.0842C353.136 93.931 352.716 94.672 352.166 95.3071C351.624 95.9338 350.968 96.4249 350.197 96.7806C349.435 97.1278 348.571 97.3014 347.606 97.3014C346.64 97.3014 345.772 97.1278 345.002 96.7806C344.231 96.4249 343.571 95.9338 343.02 95.3071C342.478 94.672 342.063 93.931 341.775 93.0842C341.487 92.2374 341.344 91.3186 341.344 90.3278ZM343.693 90.0356V90.3278C343.693 91.0137 343.774 91.6615 343.935 92.2713C344.096 92.8725 344.337 93.406 344.659 93.8718C344.989 94.3375 345.4 94.7059 345.891 94.9769C346.382 95.2394 346.954 95.3706 347.606 95.3706C348.249 95.3706 348.813 95.2394 349.295 94.9769C349.786 94.7059 350.193 94.3375 350.515 93.8718C350.836 93.406 351.078 92.8725 351.239 92.2713C351.408 91.6615 351.493 91.0137 351.493 90.3278V90.0356C351.493 89.3582 351.408 88.7188 351.239 88.1176C351.078 87.5079 350.832 86.9701 350.502 86.5044C350.18 86.0302 349.774 85.6576 349.283 85.3866C348.8 85.1156 348.232 84.9801 347.58 84.9801C346.937 84.9801 346.369 85.1156 345.878 85.3866C345.396 85.6576 344.989 86.0302 344.659 86.5044C344.337 86.9701 344.096 87.5079 343.935 88.1176C343.774 88.7188 343.693 89.3582 343.693 90.0356ZM359.152 85.4628V97.0474H356.802V83.3034H359.089L359.152 85.4628ZM363.446 83.2272L363.433 85.412C363.238 85.3696 363.052 85.3442 362.874 85.3358C362.705 85.3188 362.51 85.3104 362.29 85.3104C361.748 85.3104 361.269 85.395 360.854 85.5644C360.439 85.7338 360.088 85.9709 359.8 86.2757C359.512 86.5806 359.284 86.9447 359.114 87.3681C358.953 87.7831 358.847 88.2404 358.797 88.74L358.136 89.1211C358.136 88.2912 358.217 87.5121 358.377 86.7838C358.547 86.0556 358.805 85.412 359.152 84.8531C359.499 84.2857 359.94 83.8453 360.473 83.532C361.015 83.2102 361.659 83.0493 362.404 83.0493C362.573 83.0493 362.768 83.0705 362.988 83.1128C363.209 83.1467 363.361 83.1848 363.446 83.2272Z" fill="#777777"/>
<path d="M221.986 76.5705L234.78 72.3235L221.986 89.3115L234.78 106.3L221.986 102.053L234.78 72.3235V106.3" fill="#777777"/>
<path d="M221.986 76.5706H200.663L221.986 89.3116L200.663 102.053H221.986L200.663 76.5706V102.053" fill="#777777"/>
<path d="M59.8336 104.191V83.9124L60.0851 80.6426H62.7576V104.191H59.8336ZM48.405 89.3359V89.0058C48.405 87.7062 48.557 86.5272 48.8609 85.4687C49.1648 84.3997 49.6103 83.4827 50.1971 82.7177C50.784 81.9526 51.4914 81.3657 52.3194 80.957C53.1578 80.5378 54.1115 80.3282 55.1804 80.3282C56.2494 80.3282 57.1874 80.5169 57.9944 80.8941C58.8118 81.2609 59.5035 81.8007 60.0694 82.5133C60.6458 83.2155 61.1017 84.0644 61.4371 85.06C61.7724 86.0556 62.003 87.1822 62.1288 88.4398V89.8861C62.0135 91.1332 61.7882 92.2546 61.4528 93.2502C61.1174 94.2458 60.6615 95.0947 60.0851 95.7969C59.5192 96.499 58.8223 97.0388 57.9944 97.4161C57.1769 97.7829 56.2285 97.9663 55.149 97.9663C54.101 97.9663 53.1578 97.7514 52.3194 97.3217C51.4914 96.892 50.784 96.2894 50.1971 95.5139C49.6207 94.7384 49.1753 93.8266 48.8609 92.7786C48.557 91.7201 48.405 90.5725 48.405 89.3359ZM51.329 89.0058V89.3359C51.329 90.1848 51.4181 90.9865 51.5962 91.7411C51.7744 92.4852 52.0469 93.1454 52.4137 93.7218C52.791 94.2982 53.2626 94.7541 53.8285 95.0895C54.4049 95.4143 55.0861 95.5768 55.8721 95.5768C56.8363 95.5768 57.638 95.3672 58.2773 94.948C58.9271 94.5288 59.4458 93.9786 59.8336 93.2974C60.2214 92.6057 60.5201 91.8668 60.7297 91.0808V87.2923C60.6144 86.7158 60.431 86.1552 60.1795 85.6102C59.9384 85.0652 59.624 84.5779 59.2362 84.1482C58.8485 83.708 58.3769 83.3622 57.8214 83.1107C57.2765 82.8487 56.6372 82.7177 55.9036 82.7177C55.1071 82.7177 54.4206 82.8854 53.8442 83.2207C53.2678 83.5561 52.791 84.0172 52.4137 84.6041C52.0469 85.1805 51.7744 85.846 51.5962 86.6006C51.4181 87.3551 51.329 88.1569 51.329 89.0058ZM70.3347 83.315V97.6519H67.4265V80.6426H70.2561L70.3347 83.315ZM75.6481 80.5483L75.6324 83.2522C75.3914 83.1998 75.1608 83.1683 74.9407 83.1578C74.7311 83.1369 74.4901 83.1264 74.2176 83.1264C73.5469 83.1264 72.9547 83.2312 72.4412 83.4408C71.9277 83.6504 71.4928 83.9439 71.1364 84.3211C70.7801 84.6984 70.4971 85.1491 70.2875 85.6731C70.0884 86.1866 69.9574 86.7525 69.8945 87.3709L69.0771 87.8425C69.0771 86.8154 69.1766 85.8512 69.3758 84.9499C69.5854 84.0487 69.905 83.2522 70.3347 82.5605C70.7644 81.8583 71.3094 81.3133 71.9696 80.9256C72.6403 80.5273 73.4368 80.3282 74.3591 80.3282C74.5687 80.3282 74.8097 80.3544 75.0822 80.4068C75.3547 80.4487 75.5433 80.4959 75.6481 80.5483ZM84.8287 95.5768C85.5204 95.5768 86.1597 95.4353 86.7466 95.1523C87.3335 94.8694 87.8155 94.4816 88.1928 93.9891C88.5701 93.486 88.785 92.9148 88.8374 92.2756H91.6041C91.5517 93.2816 91.2111 94.2196 90.5823 95.0895C89.964 95.9488 89.1518 96.6458 88.1457 97.1802C87.1396 97.7043 86.0339 97.9663 84.8287 97.9663C83.5501 97.9663 82.434 97.7409 81.4803 97.2903C80.5371 96.8396 79.7511 96.2213 79.1223 95.4353C78.504 94.6493 78.0376 93.748 77.7232 92.7314C77.4193 91.7044 77.2673 90.6197 77.2673 89.4774V88.8171C77.2673 87.6748 77.4193 86.5953 77.7232 85.5788C78.0376 84.5517 78.504 83.6452 79.1223 82.8592C79.7511 82.0732 80.5371 81.4548 81.4803 81.0042C82.434 80.5535 83.5501 80.3282 84.8287 80.3282C86.1597 80.3282 87.323 80.6007 88.3186 81.1457C89.3142 81.6801 90.095 82.4138 90.6609 83.3465C91.2373 84.2687 91.5517 85.3167 91.6041 86.4905H88.8374C88.785 85.7884 88.5858 85.1543 88.24 84.5884C87.9046 84.0225 87.4435 83.5718 86.8566 83.2364C86.2802 82.8906 85.6042 82.7177 84.8287 82.7177C83.9379 82.7177 83.1886 82.8958 82.5807 83.2522C81.9834 83.598 81.5065 84.0696 81.1502 84.667C80.8043 85.2539 80.5528 85.9089 80.3956 86.632C80.2489 87.3447 80.1755 88.073 80.1755 88.8171V89.4774C80.1755 90.2214 80.2489 90.9551 80.3956 91.6782C80.5423 92.4013 80.7886 93.0563 81.1345 93.6432C81.4908 94.2301 81.9676 94.7017 82.565 95.058C83.1729 95.4039 83.9274 95.5768 84.8287 95.5768ZM94.1036 89.3359V88.9743C94.1036 87.7481 94.2818 86.611 94.6381 85.563C94.9944 84.5045 95.508 83.5875 96.1787 82.812C96.8494 82.026 97.6616 81.4181 98.6153 80.9885C99.569 80.5483 100.638 80.3282 101.822 80.3282C103.017 80.3282 104.091 80.5483 105.045 80.9885C106.009 81.4181 106.826 82.026 107.497 82.812C108.178 83.5875 108.697 84.5045 109.054 85.563C109.41 86.611 109.588 87.7481 109.588 88.9743V89.3359C109.588 90.5621 109.41 91.6991 109.054 92.7472C108.697 93.7952 108.178 94.7122 107.497 95.4982C106.826 96.2737 106.014 96.8816 105.061 97.3217C104.117 97.7514 103.048 97.9663 101.854 97.9663C100.659 97.9663 99.5847 97.7514 98.631 97.3217C97.6773 96.8816 96.8599 96.2737 96.1787 95.4982C95.508 94.7122 94.9944 93.7952 94.6381 92.7472C94.2818 91.6991 94.1036 90.5621 94.1036 89.3359ZM97.0119 88.9743V89.3359C97.0119 90.1848 97.1114 90.9865 97.3105 91.7411C97.5097 92.4852 97.8083 93.1454 98.2066 93.7218C98.6153 94.2982 99.1236 94.7541 99.7314 95.0895C100.339 95.4143 101.047 95.5768 101.854 95.5768C102.65 95.5768 103.347 95.4143 103.944 95.0895C104.552 94.7541 105.055 94.2982 105.454 93.7218C105.852 93.1454 106.151 92.4852 106.35 91.7411C106.559 90.9865 106.664 90.1848 106.664 89.3359V88.9743C106.664 88.1359 106.559 87.3447 106.35 86.6006C106.151 85.846 105.847 85.1805 105.438 84.6041C105.04 84.0172 104.537 83.5561 103.929 83.2207C103.331 82.8854 102.629 82.7177 101.822 82.7177C101.026 82.7177 100.324 82.8854 99.7157 83.2207C99.1184 83.5561 98.6153 84.0172 98.2066 84.6041C97.8083 85.1805 97.5097 85.846 97.3105 86.6006C97.1114 87.3447 97.0119 88.1359 97.0119 88.9743Z" fill="#777777"/>
<path d="M12.794 72.2571H0V84.9981H12.794V72.2571Z" fill="#777777"/>
<path d="M21.3233 72.2571H17.0586V80.7511H21.3233V72.2571Z" fill="#777777"/>
<path d="M34.1175 72.2571H25.5881V84.9981H34.1175V72.2571Z" fill="#777777"/>
<path d="M25.588 84.9979H12.7939V106.233H25.588V84.9979Z" fill="#777777"/>
<path d="M8.52934 97.739H0V106.233H8.52934V97.739Z" fill="#777777"/>
<path d="M8.52934 89.2449H0V93.4919H8.52934V89.2449Z" fill="#777777"/>
<path opacity="0.8902" d="M34.1175 97.739H29.8528V106.233H34.1175V97.739Z" fill="#777777"/>
<path d="M34.1175 89.2449H29.8528V93.4919H34.1175V89.2449Z" fill="#777777"/>
<path d="M298.913 17.2537H293.632L293.603 15.0354H298.397C299.189 15.0354 299.881 14.9018 300.473 14.6347C301.064 14.3675 301.522 13.9859 301.847 13.4897C302.18 12.984 302.347 12.3829 302.347 11.6864C302.347 10.9231 302.2 10.303 301.904 9.82591C301.618 9.33931 301.174 8.98628 300.573 8.76684C299.981 8.53785 299.228 8.42335 298.312 8.42335H294.247V27H291.485V6.1621H298.312C299.38 6.1621 300.334 6.27182 301.174 6.49127C302.014 6.70117 302.724 7.03511 303.306 7.49309C303.898 7.94153 304.346 8.514 304.652 9.2105C304.957 9.907 305.11 10.7419 305.11 11.7151C305.11 12.5738 304.89 13.3514 304.451 14.0479C304.012 14.7348 303.402 15.2978 302.619 15.7367C301.847 16.1755 300.94 16.457 299.9 16.581L298.913 17.2537ZM298.784 27H292.544L294.104 24.7531H298.784C299.662 24.7531 300.406 24.6004 301.016 24.2951C301.637 23.9898 302.109 23.5604 302.433 23.007C302.758 22.4441 302.92 21.781 302.92 21.0177C302.92 20.2449 302.782 19.577 302.505 19.014C302.228 18.4511 301.794 18.017 301.203 17.7117C300.611 17.4064 299.848 17.2537 298.913 17.2537H294.977L295.006 15.0354H300.387L300.974 15.8368C301.975 15.9227 302.825 16.2089 303.521 16.6955C304.218 17.1726 304.747 17.7832 305.11 18.5274C305.482 19.2717 305.668 20.0922 305.668 20.9891C305.668 22.2867 305.382 23.3839 304.809 24.2808C304.246 25.1681 303.449 25.8455 302.419 26.313C301.389 26.771 300.177 27 298.784 27ZM312.223 5.01716V27H309.561V5.01716H312.223ZM319.35 11.5147V27H316.688V11.5147H319.35ZM316.487 7.40722C316.487 6.97787 316.616 6.6153 316.874 6.31953C317.141 6.02375 317.532 5.87586 318.047 5.87586C318.553 5.87586 318.94 6.02375 319.207 6.31953C319.483 6.6153 319.622 6.97787 319.622 7.40722C319.622 7.81749 319.483 8.17051 319.207 8.46629C318.94 8.75252 318.553 8.89564 318.047 8.89564C317.532 8.89564 317.141 8.75252 316.874 8.46629C316.616 8.17051 316.487 7.81749 316.487 7.40722ZM326.234 14.5917V27H323.572V11.5147H326.091L326.234 14.5917ZM325.69 18.6706L324.459 18.6276C324.469 17.5686 324.607 16.5906 324.874 15.6937C325.141 14.7873 325.537 14.0002 326.062 13.3323C326.587 12.6644 327.24 12.1492 328.023 11.7866C328.805 11.4145 329.712 11.2285 330.742 11.2285C331.467 11.2285 332.135 11.3334 332.746 11.5433C333.356 11.7437 333.886 12.0633 334.334 12.5022C334.783 12.9411 335.131 13.504 335.379 14.191C335.627 14.878 335.751 15.708 335.751 16.6812V27H333.103V16.81C333.103 15.999 332.965 15.3502 332.688 14.8636C332.421 14.377 332.04 14.024 331.543 13.8046C331.047 13.5756 330.465 13.4611 329.797 13.4611C329.015 13.4611 328.361 13.5994 327.837 13.8761C327.312 14.1528 326.892 14.5345 326.577 15.0211C326.262 15.5077 326.033 16.0658 325.89 16.6955C325.757 17.3157 325.69 17.9741 325.69 18.6706ZM335.722 17.2108L333.948 17.7546C333.957 16.9054 334.096 16.0897 334.363 15.3073C334.64 14.5249 335.035 13.8284 335.551 13.2178C336.075 12.6072 336.72 12.1253 337.483 11.7723C338.246 11.4097 339.119 11.2285 340.102 11.2285C340.932 11.2285 341.667 11.3382 342.306 11.5576C342.955 11.7771 343.499 12.1158 343.937 12.5738C344.386 13.0222 344.725 13.5994 344.954 14.3055C345.183 15.0115 345.297 15.8512 345.297 16.8243V27H342.635V16.7957C342.635 15.9275 342.497 15.2548 342.22 14.7778C341.953 14.2912 341.571 13.9525 341.075 13.7616C340.588 13.5613 340.006 13.4611 339.329 13.4611C338.747 13.4611 338.232 13.5613 337.783 13.7616C337.335 13.962 336.958 14.2387 336.653 14.5917C336.347 14.9352 336.114 15.3312 335.951 15.7796C335.799 16.228 335.722 16.7051 335.722 17.2108ZM351.952 14.4915V32.9537H349.29V11.5147H351.723L351.952 14.4915ZM362.385 19.1285V19.4291C362.385 20.5549 362.252 21.5997 361.985 22.5634C361.717 23.5175 361.326 24.3476 360.811 25.0536C360.305 25.7596 359.68 26.3083 358.936 26.6995C358.192 27.0906 357.338 27.2862 356.374 27.2862C355.392 27.2862 354.523 27.124 353.77 26.7996C353.016 26.4752 352.377 26.0029 351.852 25.3828C351.327 24.7626 350.907 24.0184 350.592 23.1501C350.287 22.2819 350.077 21.3039 349.963 20.2162V18.6133C350.077 17.4684 350.292 16.4427 350.607 15.5363C350.922 14.6299 351.337 13.857 351.852 13.2178C352.377 12.569 353.011 12.0776 353.755 11.7437C354.499 11.4002 355.358 11.2285 356.331 11.2285C357.305 11.2285 358.168 11.4193 358.922 11.8009C359.676 12.173 360.31 12.7073 360.825 13.4038C361.34 14.1003 361.727 14.9352 361.985 15.9084C362.252 16.8721 362.385 17.9454 362.385 19.1285ZM359.723 19.4291V19.1285C359.723 18.3557 359.642 17.6306 359.48 16.9532C359.318 16.2662 359.065 15.6651 358.721 15.1499C358.387 14.6251 357.958 14.2148 357.433 13.9191C356.909 13.6137 356.284 13.4611 355.559 13.4611C354.891 13.4611 354.309 13.5756 353.812 13.8046C353.326 14.0336 352.911 14.3436 352.567 14.7348C352.224 15.1165 351.942 15.5554 351.723 16.0515C351.513 16.5381 351.356 17.0438 351.251 17.5686V21.2753C351.442 21.9432 351.709 22.5729 352.052 23.1645C352.396 23.7465 352.854 24.2188 353.426 24.5813C353.999 24.9343 354.719 25.1108 355.587 25.1108C356.303 25.1108 356.918 24.963 357.433 24.6672C357.958 24.3619 358.387 23.9468 358.721 23.4221C359.065 22.8973 359.318 22.2962 359.48 21.6188C359.642 20.9318 359.723 20.2019 359.723 19.4291Z" fill="#777777"/>
<path d="M273.536 12.1119C275.68 12.1119 277.418 10.3808 277.418 8.24541C277.418 6.11 275.68 4.37891 273.536 4.37891C271.392 4.37891 269.653 6.11 269.653 8.24541C269.653 10.3808 271.392 12.1119 273.536 12.1119Z" fill="#777777"/>
<path d="M259.947 8.24541C259.193 8.24541 258.456 8.31113 257.734 8.42712C256.988 6.08016 254.783 4.37891 252.182 4.37891C248.967 4.37891 246.358 6.9772 246.358 10.1787C246.358 11.9534 247.161 13.5425 248.423 14.6058C247.115 16.686 246.358 19.1412 246.358 21.7782C246.358 29.2521 252.442 35.3109 259.947 35.3109C267.452 35.3109 273.536 29.2521 273.536 21.7782C273.536 14.3042 267.452 8.24541 259.947 8.24541ZM265.246 25.6447C264.575 24.4886 263.325 23.7114 261.888 23.7114C260.451 23.7114 259.201 24.4886 258.53 25.6447C258.2 25.0763 258.005 24.4151 258.005 23.7114C258.005 21.5771 259.745 19.8449 261.888 19.8449C264.031 19.8449 265.771 21.5771 265.771 23.7114C265.771 24.4151 265.576 25.0763 265.246 25.6447Z" fill="#777777"/>
<path d="M50.6633 17.1218H46.3961L46.3729 15.3293H50.247C50.8869 15.3293 51.4458 15.2214 51.9238 15.0055C52.4018 14.7896 52.7719 14.4812 53.034 14.0803C53.3038 13.6717 53.4387 13.186 53.4387 12.6232C53.4387 12.0065 53.3192 11.5054 53.0802 11.1199C52.8489 10.7267 52.4905 10.4414 52.0048 10.2641C51.5268 10.0791 50.9177 9.98657 50.1776 9.98657H46.8933V24.9971H44.6614V8.15941H50.1776C51.0411 8.15941 51.812 8.24807 52.4905 8.42539C53.1689 8.595 53.7433 8.86483 54.2135 9.23489C54.6915 9.59724 55.0539 10.0598 55.3006 10.6226C55.5473 11.1854 55.6706 11.86 55.6706 12.6464C55.6706 13.3402 55.4933 13.9686 55.1387 14.5314C54.784 15.0864 54.2906 15.5413 53.6585 15.8959C53.034 16.2506 52.3016 16.478 51.4612 16.5782L50.6633 17.1218ZM50.5592 24.9971H45.5172L46.7777 23.1815H50.5592C51.2685 23.1815 51.8698 23.0581 52.3632 22.8114C52.8644 22.5647 53.246 22.2178 53.5081 21.7706C53.7702 21.3158 53.9013 20.7799 53.9013 20.1632C53.9013 19.5387 53.7895 18.999 53.5659 18.5442C53.3424 18.0893 52.9916 17.7385 52.5136 17.4918C52.0356 17.2451 51.4188 17.1218 50.6633 17.1218H47.4831L47.5062 15.3293H51.8544L52.3286 15.9769C53.1381 16.0463 53.8242 16.2776 54.387 16.6708C54.9498 17.0562 55.3777 17.5496 55.6706 18.151C55.9713 18.7523 56.1217 19.4154 56.1217 20.1401C56.1217 21.1886 55.8904 22.0752 55.4278 22.7998C54.9729 23.5168 54.3292 24.0642 53.4965 24.442C52.6639 24.812 51.6848 24.9971 50.5592 24.9971ZM58.527 18.8795V18.6136C58.527 17.7115 58.6581 16.8751 58.9202 16.1041C59.1823 15.3254 59.5601 14.6509 60.0535 14.0803C60.5469 13.5021 61.1444 13.055 61.846 12.7389C62.5476 12.4151 63.3339 12.2532 64.2051 12.2532C65.084 12.2532 65.8742 12.4151 66.5758 12.7389C67.2851 13.055 67.8864 13.5021 68.3798 14.0803C68.881 14.6509 69.2626 15.3254 69.5247 16.1041C69.7868 16.8751 69.9179 17.7115 69.9179 18.6136V18.8795C69.9179 19.7816 69.7868 20.618 69.5247 21.389C69.2626 22.16 68.881 22.8345 68.3798 23.4128C67.8864 23.9833 67.2889 24.4304 66.5874 24.7542C65.8935 25.0703 65.1071 25.2284 64.2282 25.2284C63.3494 25.2284 62.5591 25.0703 61.8576 24.7542C61.156 24.4304 60.5546 23.9833 60.0535 23.4128C59.5601 22.8345 59.1823 22.16 58.9202 21.389C58.6581 20.618 58.527 19.7816 58.527 18.8795ZM60.6664 18.6136V18.8795C60.6664 19.504 60.7397 20.0938 60.8862 20.6489C61.0326 21.1963 61.2524 21.682 61.5453 22.106C61.846 22.53 62.2199 22.8654 62.6671 23.1121C63.1142 23.3511 63.6346 23.4706 64.2282 23.4706C64.8142 23.4706 65.3269 23.3511 65.7663 23.1121C66.2135 22.8654 66.5835 22.53 66.8765 22.106C67.1694 21.682 67.3892 21.1963 67.5356 20.6489C67.6898 20.0938 67.7669 19.504 67.7669 18.8795V18.6136C67.7669 17.9968 67.6898 17.4147 67.5356 16.8673C67.3892 16.3123 67.1656 15.8227 66.8649 15.3987C66.5719 14.9669 66.2019 14.6277 65.7547 14.381C65.3153 14.1343 64.7988 14.011 64.2051 14.011C63.6192 14.011 63.1027 14.1343 62.6555 14.381C62.2161 14.6277 61.846 14.9669 61.5453 15.3987C61.2524 15.8227 61.0326 16.3123 60.8862 16.8673C60.7397 17.4147 60.6664 17.9968 60.6664 18.6136ZM72.0342 18.8795V18.6136C72.0342 17.7115 72.1652 16.8751 72.4274 16.1041C72.6895 15.3254 73.0672 14.6509 73.5607 14.0803C74.0541 13.5021 74.6516 13.055 75.3531 12.7389C76.0547 12.4151 76.8411 12.2532 77.7123 12.2532C78.5911 12.2532 79.3814 12.4151 80.0829 12.7389C80.7922 13.055 81.3936 13.5021 81.887 14.0803C82.3881 14.6509 82.7697 15.3254 83.0318 16.1041C83.294 16.8751 83.425 17.7115 83.425 18.6136V18.8795C83.425 19.7816 83.294 20.618 83.0318 21.389C82.7697 22.16 82.3881 22.8345 81.887 23.4128C81.3936 23.9833 80.7961 24.4304 80.0945 24.7542C79.4006 25.0703 78.6143 25.2284 77.7354 25.2284C76.8565 25.2284 76.0663 25.0703 75.3647 24.7542C74.6631 24.4304 74.0618 23.9833 73.5607 23.4128C73.0672 22.8345 72.6895 22.16 72.4274 21.389C72.1652 20.618 72.0342 19.7816 72.0342 18.8795ZM74.1736 18.6136V18.8795C74.1736 19.504 74.2468 20.0938 74.3933 20.6489C74.5398 21.1963 74.7595 21.682 75.0525 22.106C75.3531 22.53 75.727 22.8654 76.1742 23.1121C76.6214 23.3511 77.1417 23.4706 77.7354 23.4706C78.3213 23.4706 78.834 23.3511 79.2734 23.1121C79.7206 22.8654 80.0906 22.53 80.3836 22.106C80.6766 21.682 80.8963 21.1963 81.0428 20.6489C81.197 20.0938 81.2741 19.504 81.2741 18.8795V18.6136C81.2741 17.9968 81.197 17.4147 81.0428 16.8673C80.8963 16.3123 80.6727 15.8227 80.372 15.3987C80.0791 14.9669 79.709 14.6277 79.2619 14.381C78.8224 14.1343 78.3059 14.011 77.7123 14.011C77.1263 14.011 76.6098 14.1343 76.1626 14.381C75.7232 14.6277 75.3531 14.9669 75.0525 15.3987C74.7595 15.8227 74.5398 16.3123 74.3933 16.8673C74.2468 17.4147 74.1736 17.9968 74.1736 18.6136ZM88.2358 14.9708V24.9971H86.0848V12.4845H88.1201L88.2358 14.9708ZM87.7963 18.2666L86.8018 18.2319C86.8095 17.3762 86.9213 16.5859 87.1372 15.8613C87.353 15.1288 87.673 14.4928 88.097 13.9531C88.521 13.4135 89.0492 12.9972 89.6813 12.7042C90.3135 12.4035 91.0459 12.2532 91.8786 12.2532C92.4645 12.2532 93.0042 12.338 93.4976 12.5076C93.991 12.6695 94.4189 12.9278 94.7812 13.2824C95.1436 13.637 95.425 14.0919 95.6254 14.647C95.8258 15.2021 95.9261 15.8728 95.9261 16.6592V24.9971H93.7867V16.7633C93.7867 16.108 93.6749 15.5837 93.4513 15.1905C93.2354 14.7973 92.9271 14.5121 92.5262 14.3348C92.1253 14.1497 91.655 14.0572 91.1153 14.0572C90.4831 14.0572 89.955 14.169 89.531 14.3926C89.107 14.6162 88.7678 14.9245 88.5133 15.3177C88.2589 15.7109 88.0739 16.1619 87.9582 16.6708C87.8503 17.1719 87.7963 17.7038 87.7963 18.2666ZM95.9029 17.0871L94.469 17.5265C94.4767 16.8404 94.5885 16.1812 94.8043 15.549C95.0279 14.9168 95.3479 14.354 95.7642 13.8606C96.1882 13.3672 96.7086 12.9779 97.3254 12.6926C97.9421 12.3997 98.6475 12.2532 99.4416 12.2532C100.112 12.2532 100.706 12.3418 101.223 12.5192C101.747 12.6965 102.186 12.9702 102.541 13.3402C102.903 13.7026 103.177 14.169 103.362 14.7395C103.547 15.31 103.639 15.9885 103.639 16.7748V24.9971H101.489V16.7517C101.489 16.0501 101.377 15.5066 101.153 15.1211C100.937 14.7279 100.629 14.4543 100.228 14.3001C99.8348 14.1382 99.3645 14.0572 98.8172 14.0572C98.3469 14.0572 97.9306 14.1382 97.5682 14.3001C97.2059 14.462 96.9013 14.6855 96.6546 14.9708C96.4079 15.2483 96.219 15.5683 96.088 15.9306C95.9646 16.293 95.9029 16.6785 95.9029 17.0871ZM112.07 25.2284C111.199 25.2284 110.408 25.0819 109.699 24.7889C108.998 24.4882 108.392 24.0681 107.884 23.5284C107.382 22.9887 106.997 22.3488 106.727 21.6087C106.457 20.8686 106.322 20.0591 106.322 19.1802V18.6945C106.322 17.6769 106.473 16.771 106.773 15.9769C107.074 15.1751 107.483 14.4967 107.999 13.9416C108.516 13.3865 109.102 12.9663 109.757 12.6811C110.412 12.3958 111.091 12.2532 111.792 12.2532C112.687 12.2532 113.458 12.4074 114.105 12.7158C114.761 13.0241 115.296 13.4559 115.713 14.011C116.129 14.5583 116.437 15.2059 116.638 15.9538C116.838 16.6939 116.938 17.5034 116.938 18.3823V19.3421H107.594V17.5959H114.799V17.434C114.768 16.8789 114.653 16.3392 114.452 15.815C114.259 15.2907 113.951 14.859 113.527 14.5198C113.103 14.1806 112.525 14.011 111.792 14.011C111.307 14.011 110.859 14.115 110.451 14.3232C110.042 14.5236 109.691 14.8243 109.399 15.2252C109.106 15.6261 108.878 16.1157 108.716 16.6939C108.554 17.2721 108.473 17.939 108.473 18.6945V19.1802C108.473 19.7738 108.554 20.3328 108.716 20.857C108.886 21.3736 109.129 21.8284 109.445 22.2216C109.769 22.6148 110.158 22.9232 110.613 23.1468C111.075 23.3704 111.6 23.4821 112.186 23.4821C112.941 23.4821 113.581 23.328 114.105 23.0196C114.629 22.7112 115.088 22.2987 115.481 21.7822L116.777 22.8114C116.507 23.22 116.164 23.6094 115.747 23.9794C115.331 24.3495 114.818 24.6501 114.209 24.8814C113.608 25.1127 112.895 25.2284 112.07 25.2284ZM121.576 14.4504V24.9971H119.436V12.4845H121.518L121.576 14.4504ZM125.484 12.4151L125.473 14.4041C125.296 14.3656 125.126 14.3425 124.964 14.3348C124.81 14.3193 124.633 14.3116 124.432 14.3116C123.939 14.3116 123.503 14.3887 123.125 14.5429C122.748 14.6971 122.428 14.913 122.166 15.1905C121.903 15.4681 121.695 15.7996 121.541 16.1851C121.395 16.5628 121.298 16.9791 121.252 17.434L120.651 17.7809C120.651 17.0254 120.724 16.3161 120.87 15.6531C121.025 14.9901 121.26 14.4041 121.576 13.8953C121.892 13.3788 122.293 12.9779 122.778 12.6926C123.272 12.3997 123.858 12.2532 124.536 12.2532C124.69 12.2532 124.868 12.2725 125.068 12.311C125.269 12.3418 125.407 12.3765 125.484 12.4151ZM134.377 22.8577V16.4163C134.377 15.9229 134.277 15.495 134.077 15.1327C133.884 14.7626 133.591 14.4774 133.198 14.2769C132.805 14.0765 132.319 13.9763 131.741 13.9763C131.201 13.9763 130.727 14.0688 130.318 14.2538C129.917 14.4388 129.601 14.6817 129.37 14.9824C129.147 15.283 129.035 15.6068 129.035 15.9538H126.895C126.895 15.5066 127.011 15.0633 127.242 14.6239C127.474 14.1844 127.805 13.7874 128.237 13.4327C128.676 13.0704 129.2 12.7851 129.81 12.577C130.426 12.3611 131.112 12.2532 131.868 12.2532C132.778 12.2532 133.58 12.4074 134.273 12.7158C134.975 13.0241 135.522 13.4906 135.916 14.115C136.316 14.7318 136.517 15.5066 136.517 16.4395V22.2679C136.517 22.6842 136.552 23.1275 136.621 23.5978C136.698 24.0681 136.81 24.4728 136.956 24.812V24.9971H134.724C134.616 24.7504 134.532 24.4227 134.47 24.0141C134.408 23.5978 134.377 23.2123 134.377 22.8577ZM134.748 17.4109L134.771 18.9142H132.608C131.999 18.9142 131.456 18.9643 130.978 19.0646C130.5 19.1571 130.099 19.2997 129.775 19.4925C129.451 19.6852 129.204 19.928 129.035 20.221C128.865 20.5063 128.78 20.8416 128.78 21.2271C128.78 21.6203 128.869 21.9788 129.046 22.3026C129.224 22.6264 129.49 22.8847 129.844 23.0774C130.207 23.2624 130.65 23.3549 131.174 23.3549C131.829 23.3549 132.408 23.2162 132.909 22.9386C133.41 22.6611 133.807 22.3219 134.1 21.921C134.401 21.5201 134.562 21.1307 134.586 20.753L135.499 21.7822C135.445 22.106 135.299 22.4645 135.06 22.8577C134.821 23.2509 134.501 23.6286 134.1 23.991C133.707 24.3456 133.236 24.6424 132.689 24.8814C132.149 25.1127 131.54 25.2284 130.862 25.2284C130.014 25.2284 129.27 25.0626 128.63 24.7311C127.998 24.3996 127.504 23.9563 127.15 23.4012C126.803 22.8384 126.629 22.2101 126.629 21.5162C126.629 20.8455 126.76 20.2557 127.023 19.7469C127.285 19.2303 127.662 18.8024 128.156 18.4632C128.649 18.1163 129.243 17.8542 129.937 17.6769C130.631 17.4995 131.405 17.4109 132.261 17.4109H134.748ZM142.021 15.1558V24.9971H139.882V12.4845H141.906L142.021 15.1558ZM141.513 18.2666L140.622 18.2319C140.63 17.3762 140.757 16.5859 141.004 15.8613C141.251 15.1288 141.597 14.4928 142.045 13.9531C142.492 13.4135 143.024 12.9972 143.64 12.7042C144.265 12.4035 144.955 12.2532 145.711 12.2532C146.327 12.2532 146.882 12.338 147.376 12.5076C147.869 12.6695 148.289 12.9316 148.636 13.294C148.991 13.6563 149.261 14.1266 149.446 14.7048C149.631 15.2753 149.723 15.973 149.723 16.798V24.9971H147.572V16.7748C147.572 16.1195 147.476 15.5953 147.283 15.2021C147.091 14.8012 146.809 14.5121 146.439 14.3348C146.069 14.1497 145.614 14.0572 145.074 14.0572C144.543 14.0572 144.057 14.169 143.617 14.3926C143.186 14.6162 142.812 14.9245 142.496 15.3177C142.187 15.7109 141.944 16.1619 141.767 16.6708C141.597 17.1719 141.513 17.7038 141.513 18.2666ZM161.079 12.4845H163.022V24.7311C163.022 25.8336 162.799 26.7741 162.352 27.5528C161.904 28.3315 161.28 28.9212 160.478 29.3221C159.684 29.7307 158.767 29.935 157.726 29.935C157.294 29.935 156.785 29.8657 156.199 29.7269C155.621 29.5958 155.051 29.3684 154.488 29.0446C153.933 28.7285 153.466 28.3006 153.089 27.7609L154.21 26.4889C154.735 27.1211 155.282 27.5605 155.852 27.8072C156.431 28.0539 157.001 28.1773 157.564 28.1773C158.242 28.1773 158.828 28.0501 159.322 27.7956C159.815 27.5412 160.197 27.1635 160.467 26.6623C160.744 26.1689 160.883 25.5599 160.883 24.8352V15.2368L161.079 12.4845ZM152.464 18.8795V18.6367C152.464 17.6807 152.576 16.8134 152.799 16.0347C153.031 15.2483 153.358 14.5738 153.782 14.011C154.214 13.4482 154.735 13.0164 155.344 12.7158C155.953 12.4074 156.639 12.2532 157.402 12.2532C158.188 12.2532 158.875 12.392 159.46 12.6695C160.054 12.9393 160.555 13.3364 160.964 13.8606C161.38 14.3772 161.708 15.0016 161.947 15.734C162.186 16.4665 162.352 17.2952 162.444 18.2204V19.2843C162.359 20.2017 162.194 21.0267 161.947 21.7591C161.708 22.4915 161.38 23.1159 160.964 23.6325C160.555 24.149 160.054 24.5461 159.46 24.8236C158.867 25.0934 158.173 25.2284 157.379 25.2284C156.631 25.2284 155.953 25.0703 155.344 24.7542C154.742 24.4381 154.226 23.9948 153.794 23.4243C153.362 22.8538 153.031 22.1831 152.799 21.4121C152.576 20.6335 152.464 19.7893 152.464 18.8795ZM154.603 18.6367V18.8795C154.603 19.504 154.665 20.0899 154.789 20.6373C154.92 21.1847 155.116 21.6665 155.378 22.0829C155.648 22.4992 155.991 22.8268 156.408 23.0658C156.824 23.2971 157.321 23.4128 157.899 23.4128C158.609 23.4128 159.195 23.2624 159.657 22.9617C160.12 22.6611 160.486 22.264 160.756 21.7706C161.033 21.2772 161.249 20.7414 161.403 20.1632V17.3762C161.318 16.9522 161.187 16.5435 161.01 16.1504C160.84 15.7495 160.617 15.3948 160.339 15.0864C160.07 14.7703 159.734 14.5198 159.333 14.3348C158.932 14.1497 158.462 14.0572 157.922 14.0572C157.337 14.0572 156.832 14.1806 156.408 14.4273C155.991 14.6663 155.648 14.9978 155.378 15.4218C155.116 15.8381 154.92 16.3238 154.789 16.8789C154.665 17.4263 154.603 18.0122 154.603 18.6367Z" fill="#777777"/>
<path d="M13.8828 15.7893C19.8426 12.062 27.8834 14.8227 24.5211 21.3455C21.1588 27.8644 -9.58352 15.7816 3.01545 21.7863C15.6144 27.7909 20.4715 40.0207 25.6276 28.4598C30.7837 16.899 36.9958 -8.11725 19.5242 7.08583C2.05257 22.2889 6.44377 20.4368 13.8828 15.7893Z" fill="#777777"/>
</svg>
